<svg xmlns="http://www.w3.org/2000/svg" width="50" height="50" viewBox="0 0 50 50"><g transform="translate(0.483)"><rect width="50" height="49.496" transform="translate(-0.483 0.078)" fill="none"/><path d="M578.134,330.583h-3.849V319.125A3.113,3.113,0,0,0,571.191,316h-30.94a3.113,3.113,0,0,0-3.094,3.125v11.458H535.37a3.391,3.391,0,0,0-3.37,3.4v14.025a3.391,3.391,0,0,0,3.37,3.4h.755v11.458A3.113,3.113,0,0,0,539.219,366h33a3.113,3.113,0,0,0,3.094-3.125V351.417h2.818a3.391,3.391,0,0,0,3.37-3.4V333.988A3.391,3.391,0,0,0,578.134,330.583Zm-38.915-11.458a1.037,1.037,0,0,1,1.031-1.042h30.94a1.037,1.037,0,0,1,1.031,1.042v11.458h-33Zm34.034,43.75a1.037,1.037,0,0,1-1.031,1.042h-33a1.037,1.037,0,0,1-1.031-1.042V351.417h35.066Zm6.188-14.862a1.315,1.315,0,0,1-1.308,1.321H535.37a1.315,1.315,0,0,1-1.308-1.321V333.988a1.315,1.315,0,0,1,1.308-1.321h42.763a1.315,1.315,0,0,1,1.308,1.321Z" transform="translate(-532.223 -316)" fill="#0abe51"/><path d="M539.594,318.5a3.094,3.094,0,1,0,3.094,3.094A3.1,3.1,0,0,0,539.594,318.5Zm0,4.125a1.031,1.031,0,1,1,1.031-1.031A1.032,1.032,0,0,1,539.594,322.625Z" transform="translate(-527.441 -313.343)" fill="#0abe51"/><path d="M539.094,340.688A3.094,3.094,0,1,0,536,337.594,3.1,3.1,0,0,0,539.094,340.688Zm0-4.125a1.031,1.031,0,1,1-1.031,1.031A1.032,1.032,0,0,1,539.094,336.563Z" transform="translate(-527.973 -295.845)" fill="#0abe51"/><path d="M538.125,326a4.125,4.125,0,1,0,4.125,4.125A4.13,4.13,0,0,0,538.125,326Zm0,6.188a2.063,2.063,0,1,1,2.063-2.063A2.066,2.066,0,0,1,538.125,332.188Z" transform="translate(-530.098 -305.125)" fill="#0abe51"/><path d="M558,319.5h-15.47a1.031,1.031,0,0,0,0,2.063H558a1.031,1.031,0,1,0,0-2.063Z" transform="translate(-522.128 -312.281)" fill="#0abe51"/><path d="M565.784,327.5H541.031a1.031,1.031,0,1,0,0,2.063h24.752a1.031,1.031,0,0,0,0-2.063Z" transform="translate(-523.722 -303.531)" fill="#0abe51"/><path d="M542.031,337.563h16.5a1.031,1.031,0,1,0,0-2.063h-16.5a1.031,1.031,0,0,0,0,2.063Z" transform="translate(-522.659 -294.782)" fill="#0abe51"/></g></svg>