<svg xmlns="http://www.w3.org/2000/svg" width="50" height="50" viewBox="0 0 50 50"><g transform="translate(0.483 0.276)"><rect width="50" height="49.347" transform="translate(-0.483 -0.276)" fill="none"/><path d="M209.034,178.231H205.94v-3.116A3.109,3.109,0,0,0,202.846,172H178.094A3.109,3.109,0,0,0,175,175.116V212.5a3.109,3.109,0,0,0,3.094,3.116h3.094v3.116a3.109,3.109,0,0,0,3.094,3.116h24.752a3.109,3.109,0,0,0,3.094-3.116V181.347A3.109,3.109,0,0,0,209.034,178.231Zm0,2.077a1.035,1.035,0,0,1,1.031,1.039V199H205.94V180.309Zm-30.94-6.231h24.752a1.035,1.035,0,0,1,1.031,1.039v17.656H197.6a7.557,7.557,0,0,0,.087-1.039,7.267,7.267,0,0,0-4.175-6.568,4.125,4.125,0,1,0-6.089,0,7.267,7.267,0,0,0-4.175,6.568,7.554,7.554,0,0,0,.087,1.039h-6.275V175.116A1.035,1.035,0,0,1,178.094,174.077Zm7.333,18.694a5.3,5.3,0,0,1-.113-1.039,5.157,5.157,0,1,1,10.313,0,5.288,5.288,0,0,1-.113,1.039Zm2.981-10.386a2.063,2.063,0,1,1,2.063,2.077A2.073,2.073,0,0,1,188.407,182.386ZM177.063,212.5V194.849h7.564l.008,0,.019,0h19.224V212.5a1.035,1.035,0,0,1-1.031,1.039H178.094A1.035,1.035,0,0,1,177.063,212.5Zm31.971,7.27H184.282a1.035,1.035,0,0,1-1.031-1.039V215.62h19.6a3.109,3.109,0,0,0,3.094-3.116V201.08h4.125v17.656A1.035,1.035,0,0,1,209.034,219.775Z" transform="translate(-169.035 -172.128)" fill="#0abe51"/><path d="M178.031,190.188h4.125a1.032,1.032,0,0,0,1.031-1.031v-4.125A1.032,1.032,0,0,0,182.157,184h-4.125A1.032,1.032,0,0,0,177,185.031v4.125A1.032,1.032,0,0,0,178.031,190.188Zm1.031-4.125h2.063v2.063h-2.063Z" transform="translate(-166.91 -159.176)" fill="#0abe51"/><path d="M182.031,186.063h12.376a1.031,1.031,0,0,0,0-2.063H182.031a1.031,1.031,0,1,0,0,2.063Z" transform="translate(-162.659 -159.194)" fill="#0abe51"/><path d="M182.031,188.063h12.376a1.031,1.031,0,0,0,0-2.063H182.031a1.031,1.031,0,1,0,0,2.063Z" transform="translate(-162.659 -157.038)" fill="#0abe51"/><path d="M199.689,189.031A1.032,1.032,0,0,0,198.658,188H178.031a1.031,1.031,0,1,0,0,2.063h20.627A1.032,1.032,0,0,0,199.689,189.031Z" transform="translate(-166.91 -154.883)" fill="#0abe51"/></g></svg>