<svg xmlns="http://www.w3.org/2000/svg" width="33.305" height="33.305" viewBox="0 0 33.305 33.305"><g transform="translate(-316 -244)"><rect width="33.305" height="33.305" transform="translate(316 244)" fill="none"/><path d="M331.078,260.936h2.6a2.023,2.023,0,0,0,1.069-3.74A2.022,2.022,0,0,0,333.1,254h-2.023a.578.578,0,0,0-.578.578v5.78A.578.578,0,0,0,331.078,260.936Zm.578-5.78H333.1a.867.867,0,0,1,0,1.734h-1.445Zm0,2.89h2.023a.867.867,0,1,1,0,1.734h-2.023Z" transform="translate(6.397 4.649)" fill="#0abe51"/><path d="M326.739,257.139l-2.312-5.78a.6.6,0,0,0-1.073,0l-2.312,5.78a.578.578,0,0,0,1.073.43l.554-1.384a.66.66,0,0,0,.066.013h2.312a.66.66,0,0,0,.066-.013l.554,1.384a.578.578,0,0,0,.536.363.564.564,0,0,0,.215-.042A.577.577,0,0,0,326.739,257.139Zm-3.613-2.1.764-1.912.764,1.912Z" transform="translate(2.243 3.265)" fill="#0abe51"/><path d="M343.356,249.226h-9.582v-.972A3.293,3.293,0,0,0,330.45,245h-9.126A3.293,3.293,0,0,0,318,248.254v20.258a3.293,3.293,0,0,0,3.324,3.254h9.126c.1,0,.2-.021.3-.03a.676.676,0,0,0,.152.03v.972a3.293,3.293,0,0,0,3.324,3.254h9.126a3.293,3.293,0,0,0,3.324-3.254V252.48A3.293,3.293,0,0,0,343.356,249.226Zm1.89,3.254v.972H333.774v-2.818h9.582A1.869,1.869,0,0,1,345.246,252.48Zm0,17.877H333.183a3.193,3.193,0,0,0,.591-1.845V254.861h11.472Zm-25.812-19.723H332.34v15.5H319.434Zm1.89-4.226h9.126a1.869,1.869,0,0,1,1.89,1.845v.972H319.434v-.972A1.869,1.869,0,0,1,321.324,246.409Zm-1.89,22.1v-.972H332.34v.972a1.869,1.869,0,0,1-1.89,1.845h-9.126A1.869,1.869,0,0,1,319.434,268.512Zm25.812,4.226a1.869,1.869,0,0,1-1.89,1.845H334.23a1.869,1.869,0,0,1-1.89-1.845v-.972h12.906Z" transform="translate(0.312 0.156)" fill="#0abe51"/></g></svg>