<svg xmlns="http://www.w3.org/2000/svg" width="36" height="36" viewBox="0 0 36 36"><g transform="translate(-747.906 -747.906)"><rect width="36" height="36" transform="translate(747.906 747.906)" fill="none"/><path d="M762.48,755a7.48,7.48,0,1,0,7.48,7.48A7.489,7.489,0,0,0,762.48,755Zm0,13.465a5.984,5.984,0,1,1,5.984-5.984A5.99,5.99,0,0,1,762.48,768.465Z" transform="translate(3.472 3.473)" fill="#0abe51"/><path d="M780.118,769.468a14.545,14.545,0,0,0,0-7.028L782.2,760.5a.745.745,0,0,0,.192-.809,16.747,16.747,0,0,0-2.982-5.166.741.741,0,0,0-.8-.238l-2.711.836a14.935,14.935,0,0,0-6.095-3.51l-.634-2.775a.746.746,0,0,0-.6-.572,16.589,16.589,0,0,0-5.966,0,.746.746,0,0,0-.6.572l-.634,2.775a14.936,14.936,0,0,0-6.095,3.51l-2.711-.836a.735.735,0,0,0-.8.238,16.747,16.747,0,0,0-2.982,5.166.745.745,0,0,0,.192.809l2.086,1.936a14.557,14.557,0,0,0,0,7.031l-2.086,1.936a.745.745,0,0,0-.192.809,16.747,16.747,0,0,0,2.982,5.166.741.741,0,0,0,.8.238l2.711-.836a14.938,14.938,0,0,0,6.095,3.51l.634,2.775a.746.746,0,0,0,.6.571,16.749,16.749,0,0,0,5.966,0,.746.746,0,0,0,.6-.571l.634-2.775a14.938,14.938,0,0,0,6.095-3.51l2.711.836a.745.745,0,0,0,.8-.238,16.747,16.747,0,0,0,2.982-5.166.745.745,0,0,0-.192-.809Zm-.278,4.714a15.526,15.526,0,0,1-1.267,1.857l-2.653-.817a.742.742,0,0,0-.754.188,13.433,13.433,0,0,1-6.174,3.556.751.751,0,0,0-.54.557l-.621,2.718a14.829,14.829,0,0,1-4.485,0l-.621-2.718a.751.751,0,0,0-.54-.557,13.433,13.433,0,0,1-6.174-3.556.74.74,0,0,0-.754-.188l-2.652.817a14.925,14.925,0,0,1-2.241-3.882l2.041-1.9a.749.749,0,0,0,.212-.745,13.136,13.136,0,0,1,0-7.124.749.749,0,0,0-.212-.745l-2.041-1.9a14.925,14.925,0,0,1,2.241-3.882l2.652.817a.742.742,0,0,0,.754-.188,13.434,13.434,0,0,1,6.174-3.556.751.751,0,0,0,.54-.557l.621-2.718a14.829,14.829,0,0,1,4.485,0l.621,2.718a.751.751,0,0,0,.54.557,13.434,13.434,0,0,1,6.174,3.556.744.744,0,0,0,.754.188l2.653-.817a14.935,14.935,0,0,1,2.241,3.882l-2.041,1.9a.749.749,0,0,0-.212.745,13.125,13.125,0,0,1,0,7.121.749.749,0,0,0,.212.745l2.041,1.9A15.654,15.654,0,0,1,779.84,774.182Z" transform="translate(0.364 0)" fill="#0abe51"/></g></svg>