<svg xmlns="http://www.w3.org/2000/svg" width="50" height="50" viewBox="0 0 50 50"><g transform="translate(0 0.276)"><path d="M537.038,973.576h11.94a1.038,1.038,0,1,0,0-2.076h-11.94a1.038,1.038,0,0,0,0,2.076Z" transform="translate(-527.693 -956.053)" fill="#0abe51"/><path d="M545.344,973.5h-8.306a1.038,1.038,0,0,0,0,2.077h8.306a1.038,1.038,0,1,0,0-2.077Z" transform="translate(-527.693 -953.9)" fill="#0abe51"/><path d="M558.478,978h-11.94a1.038,1.038,0,0,0,0,2.077h11.94a1.038,1.038,0,0,0,0-2.077Z" transform="translate(-517.466 -949.055)" fill="#0abe51"/><path d="M554.844,980h-8.306a1.038,1.038,0,0,0,0,2.077h8.306a1.038,1.038,0,1,0,0-2.077Z" transform="translate(-517.466 -946.902)" fill="#0abe51"/><path d="M566.263,977.959a15.471,15.471,0,0,0-3.366.413,15.565,15.565,0,1,0-28.959,10.2l-1.838,5.515a1.944,1.944,0,0,0,.467,1.989l0,0a2.007,2.007,0,0,0,1.991.467l5.513-1.838a15.417,15.417,0,0,0,10.866,1.561,15.542,15.542,0,0,0,22.819,10.9l5.5,1.834a1.946,1.946,0,0,0,2.475-2.459l-1.838-5.513a15.555,15.555,0,0,0-13.636-23.072Zm-25.547,14.727a1.043,1.043,0,0,0-.53-.145,1.054,1.054,0,0,0-.328.054l-5.708,1.911,1.9-5.715a1.037,1.037,0,0,0-.091-.858,13.493,13.493,0,1,1,25.109-6.859,13.17,13.17,0,0,1-.166,2.01c-.015.093-.027.189-.044.28a13.669,13.669,0,0,1-5.484,8.7l-.01.006a13.416,13.416,0,0,1-1.751,1.053c-.071.035-.141.068-.212.1a13.224,13.224,0,0,1-1.906.758h0a13.422,13.422,0,0,1-10.781-1.3Zm37.068,8.564,1.9,5.706-5.706-1.9a1.044,1.044,0,0,0-.858.091,13.479,13.479,0,0,1-20.184-9.454c.056-.021.1-.052.16-.073a15.547,15.547,0,0,0,3.972-2.228l.027-.019a15.567,15.567,0,0,0,5.82-9.729c.021-.12.037-.241.056-.363a15.747,15.747,0,0,0,.174-2.205c0-.224,0-.447-.015-.669a13.482,13.482,0,0,1,14.741,19.987A1.037,1.037,0,0,0,577.783,1001.249Z" transform="translate(-532 -962.512)" fill="#0abe51"/><rect width="50" height="50" transform="translate(0 -0.276)" fill="none"/></g></svg>