<svg xmlns="http://www.w3.org/2000/svg" width="37" height="37" viewBox="0 0 37 37"><g transform="translate(-747.733 -603.733)"><rect width="37" height="37" transform="translate(747.733 603.733)" fill="none"/><path d="M766.352,604A18.352,18.352,0,1,0,784.7,622.352,18.372,18.372,0,0,0,766.352,604Zm0,35.174a16.823,16.823,0,1,1,16.823-16.823A16.842,16.842,0,0,1,766.352,639.174Z" transform="translate(0.029 0.029)" fill="#0abe51"/><path d="M765.029,606.5a14.529,14.529,0,1,0,14.529,14.528A14.546,14.546,0,0,0,765.029,606.5Zm0,27.528a13,13,0,1,1,13-13A13.014,13.014,0,0,1,765.029,634.028Z" transform="translate(1.352 1.352)" fill="#0abe51"/><path d="M762.647,609a.765.765,0,0,0-.764.765v9.176h-6.117a.765.765,0,1,0,0,1.529h6.882a.765.765,0,0,0,.765-.764v-9.941A.765.765,0,0,0,762.647,609Z" transform="translate(3.734 2.676)" fill="#0abe51"/></g></svg>