<svg id="Layer_1" data-name="Layer 1" xmlns="http://www.w3.org/2000/svg" viewBox="0 0 574.03 537.39"><defs><style>.cls-1{fill:#f7f7f7;}</style></defs><path class="cls-1" d="M4.88,250.09c0,43.54,40.23,78.84,89.86,78.84s54.75-35.81,54.75-79.36-5.11-78.33-54.75-78.33S4.88,206.54,4.88,250.09Z"/><path class="cls-1" d="M569.15,250.09c0,43.54-40.23,78.84-89.86,78.84s-54.75-35.81-54.75-79.36,5.11-78.33,54.75-78.33S569.15,206.54,569.15,250.09Z"/><path class="cls-1" d="M516.83,532.83,321.24,487.94a28.09,28.09,0,0,1,17.18-53.48l88.25,25L397,391.66l12.49-11.91c18.18-18.16,60.33-67.66,59.26-134.75C466.94,134.78,372.24,60.74,284.89,60.74S102.83,134.78,101.07,245c-1.07,67.08,41.08,116.58,59.25,134.75a28.09,28.09,0,1,1-39.71,39.73c-23.23-23.23-77.12-86.82-75.7-175.38,1.84-115.68,98.71-239.54,240-239.54S523,128.42,524.87,244.1c1.2,74.79-37.05,131.77-63,161.67Z"/><ellipse class="cls-1" cx="169.45" cy="416.83" rx="36.47" ry="52.67" transform="translate(-279.61 388.48) rotate(-64.27)"/></svg>