<svg xmlns="http://www.w3.org/2000/svg" width="34" height="34" viewBox="0 0 34 34"><g transform="translate(-532 -172)"><rect width="34" height="34" transform="translate(532 172)" fill="none"/><path d="M538.458,172a4.958,4.958,0,1,0,4.958,4.958A4.964,4.964,0,0,0,538.458,172Zm0,8.5A3.542,3.542,0,1,1,542,176.958,3.547,3.547,0,0,1,538.458,180.5Z" transform="translate(0.625)" fill="#0abe51"/><path d="M538.54,174.707l-1.624,1.625-.207-.208a.709.709,0,1,0-1,1l.708.708a.711.711,0,0,0,1,0l2.125-2.125a.709.709,0,0,0-1-1Z" transform="translate(1.458 1.042)" fill="#0abe51"/><path d="M538.458,189a4.958,4.958,0,1,0,4.958,4.958A4.964,4.964,0,0,0,538.458,189Zm0,1.417a3.5,3.5,0,0,1,1.949.591l-4.9,4.9a3.5,3.5,0,0,1-.591-1.949A3.547,3.547,0,0,1,538.458,190.417Zm0,7.083a3.5,3.5,0,0,1-1.949-.591l4.9-4.9a3.5,3.5,0,0,1,.591,1.949A3.547,3.547,0,0,1,538.458,197.5Z" transform="translate(0.625 7.083)" fill="#0abe51"/><path d="M538.458,180.5a4.958,4.958,0,1,0,4.958,4.958A4.964,4.964,0,0,0,538.458,180.5Zm0,1.417a3.5,3.5,0,0,1,1.949.591l-4.9,4.9a3.5,3.5,0,0,1-.591-1.949A3.547,3.547,0,0,1,538.458,181.917Zm0,7.083a3.5,3.5,0,0,1-1.949-.591l4.9-4.9a3.5,3.5,0,0,1,.591,1.949A3.547,3.547,0,0,1,538.458,189Z" transform="translate(0.625 3.542)" fill="#0abe51"/><path d="M558.792,173H543.208a.708.708,0,1,0,0,1.417h15.583a.708.708,0,0,0,0-1.417Z" transform="translate(4.375 0.417)" fill="#0abe51"/><path d="M558.792,175H543.208a.708.708,0,1,0,0,1.417h15.583a.708.708,0,0,0,0-1.417Z" transform="translate(4.375 1.25)" fill="#0abe51"/><path d="M543.208,178.417h7.083a.708.708,0,0,0,0-1.417h-7.083a.708.708,0,1,0,0,1.417Z" transform="translate(4.375 2.083)" fill="#0abe51"/><path d="M558.792,181H543.208a.708.708,0,1,0,0,1.417h15.583a.708.708,0,0,0,0-1.417Z" transform="translate(4.375 3.75)" fill="#0abe51"/><path d="M558.792,183H543.208a.708.708,0,1,0,0,1.417h15.583a.708.708,0,0,0,0-1.417Z" transform="translate(4.375 4.583)" fill="#0abe51"/><path d="M556.292,185h-7.083a.708.708,0,1,0,0,1.417h7.083a.708.708,0,0,0,0-1.417Z" transform="translate(6.875 5.417)" fill="#0abe51"/><path d="M558.792,189H543.208a.708.708,0,1,0,0,1.417h15.583a.708.708,0,0,0,0-1.417Z" transform="translate(4.375 7.083)" fill="#0abe51"/><path d="M558.792,191H543.208a.708.708,0,1,0,0,1.417h15.583a.708.708,0,0,0,0-1.417Z" transform="translate(4.375 7.917)" fill="#0abe51"/><path d="M553.292,193h-7.083a.708.708,0,1,0,0,1.417h7.083a.708.708,0,0,0,0-1.417Z" transform="translate(5.625 8.75)" fill="#0abe51"/></g></svg>