<svg xmlns="http://www.w3.org/2000/svg" width="50" height="50" viewBox="0 0 50 50"><g transform="translate(0.129)"><rect width="50" height="49.63" transform="translate(-0.129 0.37)" fill="none"/><path d="M540.822,172a7.322,7.322,0,1,0,7.323,7.322A7.33,7.33,0,0,0,540.822,172Zm0,12.553a5.23,5.23,0,1,1,5.23-5.23A5.238,5.238,0,0,1,540.822,184.553Z" transform="translate(-530.42 -172)" fill="#0abe51"/><path d="M539.99,174.806l-2.4,2.4-.305-.308a1.047,1.047,0,1,0-1.481,1.481l1.046,1.046a1.051,1.051,0,0,0,1.481,0l3.138-3.138a1.047,1.047,0,0,0-1.481-1.481Z" transform="translate(-528.236 -169.27)" fill="#0abe51"/><path d="M540.822,189a7.322,7.322,0,1,0,7.323,7.322A7.33,7.33,0,0,0,540.822,189Zm0,2.092a5.172,5.172,0,0,1,2.879.872l-7.237,7.237a5.173,5.173,0,0,1-.872-2.879A5.238,5.238,0,0,1,540.822,191.092Zm0,10.461a5.173,5.173,0,0,1-2.879-.872l7.237-7.237a5.173,5.173,0,0,1,.872,2.879A5.238,5.238,0,0,1,540.822,201.553Z" transform="translate(-530.42 -153.804)" fill="#0abe51"/><path d="M540.822,180.5a7.322,7.322,0,1,0,7.323,7.322A7.33,7.33,0,0,0,540.822,180.5Zm0,2.092a5.172,5.172,0,0,1,2.879.872l-7.237,7.237a5.173,5.173,0,0,1-.872-2.879A5.238,5.238,0,0,1,540.822,182.592Zm0,10.461a5.173,5.173,0,0,1-2.879-.872l7.237-7.237a5.173,5.173,0,0,1,.872,2.879A5.238,5.238,0,0,1,540.822,193.053Z" transform="translate(-530.42 -162.901)" fill="#0abe51"/><path d="M566.559,173H543.546a1.046,1.046,0,0,0,0,2.092h23.013a1.046,1.046,0,0,0,0-2.092Z" transform="translate(-520.591 -170.908)" fill="#0abe51"/><path d="M566.559,175H543.546a1.046,1.046,0,0,0,0,2.092h23.013a1.046,1.046,0,0,0,0-2.092Z" transform="translate(-520.591 -168.724)" fill="#0abe51"/><path d="M543.546,179.092h10.461a1.046,1.046,0,1,0,0-2.092H543.546a1.046,1.046,0,0,0,0,2.092Z" transform="translate(-520.591 -166.62)" fill="#0abe51"/><path d="M566.559,181H543.546a1.046,1.046,0,0,0,0,2.092h23.013a1.046,1.046,0,0,0,0-2.092Z" transform="translate(-520.591 -162.315)" fill="#0abe51"/><path d="M566.559,183H543.546a1.046,1.046,0,0,0,0,2.092h23.013a1.046,1.046,0,0,0,0-2.092Z" transform="translate(-520.591 -160.163)" fill="#0abe51"/><path d="M560.007,185H549.546a1.046,1.046,0,0,0,0,2.092h10.461a1.046,1.046,0,0,0,0-2.092Z" transform="translate(-514.039 -158.011)" fill="#0abe51"/><path d="M566.559,189H543.546a1.046,1.046,0,0,0,0,2.092h23.013a1.046,1.046,0,0,0,0-2.092Z" transform="translate(-520.591 -153.707)" fill="#0abe51"/><path d="M566.559,191H543.546a1.046,1.046,0,0,0,0,2.092h23.013a1.046,1.046,0,0,0,0-2.092Z" transform="translate(-520.591 -151.555)" fill="#0abe51"/><path d="M557.007,193H546.546a1.046,1.046,0,0,0,0,2.092h10.461a1.046,1.046,0,0,0,0-2.092Z" transform="translate(-517.315 -149.436)" fill="#0abe51"/></g></svg>