<svg xmlns="http://www.w3.org/2000/svg" width="50" height="50" viewBox="0 0 50 50"><g transform="translate(0.129 0.276)"><rect width="50" height="50" transform="translate(-0.129 -0.276)" fill="none"/><path d="M146.838,197.386a1.208,1.208,0,0,0-.023-.125,1.036,1.036,0,0,0-.254-.477l-4.17-4.17a1.044,1.044,0,0,0-1.476,1.476l2.392,2.39h-7.961a11.491,11.491,0,0,0-7.181-9.606,7.819,7.819,0,1,0-8.47,0,11.491,11.491,0,0,0-7.181,9.606h-7.961l2.392-2.39a1.044,1.044,0,0,0-1.476-1.476l-4.17,4.17a1.036,1.036,0,0,0-.254.477,1.208,1.208,0,0,0-.023.125,1.006,1.006,0,0,0,.052.532v0l.008.01a1.05,1.05,0,0,0,.217.329l4.17,4.17a1.044,1.044,0,1,0,1.476-1.476l-2.392-2.389H113.5a9.394,9.394,0,0,1,9.383,9.383v11.468a1.043,1.043,0,0,0,2.085,0V207.947a9.394,9.394,0,0,1,9.383-9.383h8.951l-2.392,2.389a1.044,1.044,0,0,0,1.476,1.476l4.17-4.17a1.051,1.051,0,0,0,.217-.329l.008-.01v0A1.006,1.006,0,0,0,146.838,197.386Zm-28.643-17.067a5.734,5.734,0,1,1,5.734,5.734A5.739,5.739,0,0,1,118.195,180.319Zm5.734,22.878a11.481,11.481,0,0,0-9.283-6.66,9.329,9.329,0,0,1,18.566,0A11.481,11.481,0,0,0,123.929,203.2Z" transform="translate(-98.967 -171.583)" fill="#0abe51"/></g></svg>