<svg id="Layer_1" data-name="Layer 1" xmlns="http://www.w3.org/2000/svg" viewBox="0 0 201.91 38.97"><defs><style>.cls-1{fill:#fff;}.cls-2{fill:#35b452;}</style></defs><path class="cls-1" d="M56.32,17l-.44.39a2.09,2.09,0,0,0,.47-.36Zm-1,.68a3.23,3.23,0,0,1-.49.18,3.12,3.12,0,0,0,1.07-.47A2.62,2.62,0,0,1,55.27,17.68Zm-.51.18h0Zm-.86.07a.3.3,0,0,0,.18,0,3.31,3.31,0,0,0,.63-.1,3.37,3.37,0,0,1-.7.06Z"/><path class="cls-1" d="M62.16,25.94v3.11H57.4V26a3.21,3.21,0,0,0-3.93-3.14,3.34,3.34,0,0,0-2.42,3.28v2.93H46.29V14.62a7.89,7.89,0,0,1,2-5.24l3.36,3.14a.9.9,0,0,0-.26.36,3.6,3.6,0,0,0-.54,1.84,3.21,3.21,0,0,0,2.92,3.21s.08,0,.15,0a.3.3,0,0,0,.18,0,3.07,3.07,0,0,0,1.77-.58s0,0,0,0a2.09,2.09,0,0,0,.47-.36l3.43,3.25A7.83,7.83,0,0,1,62.16,25.94Z"/><path class="cls-2" d="M62.14,14.62a.36.36,0,0,1,0,.15,7.72,7.72,0,0,1-1.22,4.12l-3.66-3.48a4.51,4.51,0,0,0,.07-.73,3.15,3.15,0,0,0-1-2.29,1.71,1.71,0,0,0-.46-.39,3.29,3.29,0,0,0-1.82-.56,3.15,3.15,0,0,0-.92.13L49.57,8.2a7.85,7.85,0,0,1,4.64-1.51A7.93,7.93,0,0,1,62.14,14.62Z"/><path class="cls-1" d="M64.78,14.4V29.05h4.89V14.4Z"/><path class="cls-1" d="M81.75,14a6.43,6.43,0,0,0-4,1.36v-1H72.81V29.05h4.93V19.83a3.64,3.64,0,0,1,2.66-1.37c1.63,0,2.67.93,2.67,3v7.59H88V20.69C88,16.52,85.44,14,81.75,14Z"/><path class="cls-1" d="M100.8,14.4v.72a7.32,7.32,0,0,0-4-1.11,7.26,7.26,0,1,0,0,14.51,7.48,7.48,0,0,0,4-1v1.74a2.79,2.79,0,0,1-3,3C96,32.25,95,31.39,94.77,30H89.94c.23,3.8,3.47,6.34,7.91,6.34s7.84-2.66,7.84-7.24V14.4Zm0,8.85a3.79,3.79,0,0,1-3,1.39,3.4,3.4,0,0,1-3.48-3.18A3.29,3.29,0,0,1,97.78,18a3.73,3.73,0,0,1,3,1.36Z"/><path class="cls-2" d="M141.29,14.4v.76a7,7,0,0,0-4-1.15,7.46,7.46,0,0,0-7.28,7.7,7.49,7.49,0,0,0,7.28,7.72,6.87,6.87,0,0,0,4-1.18v.8h4.89V14.4Zm0,9.56a3.77,3.77,0,0,1-3,1.3,3.43,3.43,0,0,1-3.48-3.55,3.43,3.43,0,0,1,3.48-3.56,3.77,3.77,0,0,1,3,1.3Z"/><path class="cls-2" d="M159.41,14.4l-3.49,8.46-3.51-8.46h-5.16l6.34,14.65h4.66l6.32-14.65Z"/><path class="cls-2" d="M177,14.4l-3.49,8.46L170,14.4h-5.16l6.34,14.65h4.66l6.34-14.65Z"/><path class="cls-2" d="M195.72,14.4l-3.84,9.08-4.17-9.08h-5.2l7.16,14.34-3,7.27h5.14l9.12-21.61Z"/><path class="cls-2" d="M128.36,15.38h-4.91c-.27-1.48-1.16-2.51-3.25-2.51-1.73,0-2.86.68-2.86,2s.81,1.63,2.37,2l2.75.59c3.62.75,5.94,2.24,5.94,5.65,0,4-3.25,6.41-8.16,6.41-4.43,0-8.43-2.12-8.89-7h4.92c.32,1.75,1.79,2.86,4.11,2.86,1.73,0,2.78-.68,2.78-1.78,0-.7-.38-1.43-2.09-1.75l-3.24-.7c-3.87-.85-5.7-2.63-5.7-5.77,0-4,3.19-6.42,7.81-6.42C123.13,8.85,127.87,10.05,128.36,15.38Z"/><path class="cls-1" d="M.88,18.56c0,2.74,2.54,5,5.66,5s3.45-2.26,3.45-5-.32-4.94-3.45-4.94S.88,15.82.88,18.56Z"/><path class="cls-1" d="M36.44,18.56c0,2.74-2.53,5-5.66,5s-3.45-2.26-3.45-5,.32-4.94,3.45-4.94S36.44,15.82,36.44,18.56Z"/><path class="cls-1" d="M33.14,36.38,20.82,33.55a1.77,1.77,0,1,1,1.08-3.37l5.56,1.58-1.87-4.28.79-.75a12.23,12.23,0,0,0,3.73-8.49A11.89,11.89,0,0,0,18.53,6.63,11.89,11.89,0,0,0,6.94,18.24a12.23,12.23,0,0,0,3.74,8.49,1.77,1.77,0,1,1-2.51,2.51C6.71,27.77,3.31,23.76,3.4,18.18,3.52,10.89,9.62,3.09,18.53,3.09s15,7.8,15.12,15.09a15.36,15.36,0,0,1-4,10.19Z"/><ellipse class="cls-1" cx="11.25" cy="29.07" rx="2.3" ry="3.32" transform="translate(-19.82 26.58) rotate(-64.27)"/></svg>