<?xml version="1.0" encoding="utf-8"?>
<!-- Generator: Adobe Illustrator 25.1.0, SVG Export Plug-In . SVG Version: 6.00 Build 0)  -->
<svg version="1.1" id="Layer_1" xmlns="http://www.w3.org/2000/svg" xmlns:xlink="http://www.w3.org/1999/xlink" x="0px" y="0px"
	 viewBox="0 0 201.91 38.97" style="enable-background:new 0 0 201.91 38.97;" xml:space="preserve">
<style type="text/css">
	.st0{fill:#FFFFFF;}
	.st1{fill:#333333;}
	.st2{fill:#35B452;}
</style>
<g>
	<g>
		<g>
			<g>
				<path class="st0" d="M56.32,17c-0.14,0.14-0.29,0.25-0.43,0.4c0.18-0.11,0.32-0.22,0.47-0.36L56.32,17z M55.27,17.68
					c-0.17,0.07-0.31,0.14-0.49,0.17c0.38-0.1,0.75-0.24,1.06-0.46C55.67,17.5,55.49,17.61,55.27,17.68z M54.76,17.86
					c0.01,0,0.01-0.01,0.02-0.01c-0.02,0.01-0.05,0.01-0.08,0.01C54.73,17.86,54.75,17.87,54.76,17.86z M53.9,17.93
					c0.07,0.04,0.11,0.04,0.18,0.04c0.22,0,0.42-0.06,0.63-0.1c-0.23,0.06-0.47,0.07-0.7,0.07C53.97,17.93,53.9,17.93,53.9,17.93z"
					/>
				<path class="st0" d="M62.16,25.94v3.1H57.4v-3.07c0-2.02-1.88-3.64-3.93-3.14c-1.48,0.36-2.42,1.8-2.42,3.28v2.92h-4.76V14.62
					c0-2.02,0.76-3.82,1.98-5.23l3.36,3.14c-0.11,0.11-0.22,0.22-0.25,0.36c-0.32,0.54-0.54,1.15-0.54,1.84
					c0,1.66,1.26,3.07,2.92,3.21c0.04,0.04,0.07,0.04,0.14,0c0.07,0.04,0.11,0.04,0.18,0.04c0.65,0,1.26-0.22,1.77-0.58
					c0.04,0.04,0.04,0.04,0.04,0c0.18-0.11,0.32-0.22,0.47-0.36l3.43,3.25C61.26,21.72,62.16,23.71,62.16,25.94z"/>
			</g>
			<g>
				<path class="st0" d="M62.14,14.62c0,0.04,0,0.12-0.02,0.16c-0.02,1.51-0.47,2.93-1.22,4.11l-3.67-3.47
					c0.04-0.25,0.08-0.48,0.08-0.74c0-0.89-0.37-1.71-0.97-2.29c-0.14-0.16-0.29-0.29-0.47-0.39c-0.52-0.35-1.16-0.56-1.82-0.56
					c-0.31,0-0.62,0.04-0.91,0.14L49.57,8.2c1.3-0.95,2.91-1.51,4.64-1.51C58.59,6.69,62.14,10.24,62.14,14.62z"/>
			</g>
		</g>
		<path class="st0" d="M64.78,14.4v14.64h4.89V14.4H64.78z"/>
		<path class="st0" d="M81.75,14.01c-1.57,0-2.85,0.48-4.02,1.36V14.4h-4.93v14.64h4.93v-9.21c0.83-0.93,1.78-1.38,2.66-1.38
			c1.63,0,2.68,0.93,2.68,3.01v7.58h4.89v-8.36C87.96,16.52,85.44,14.01,81.75,14.01z"/>
		<path class="st0" d="M100.8,14.4v0.72c-1.09-0.68-2.39-1.11-4.02-1.11c-3.96,0-7.27,2.99-7.27,7.45c0,3.96,3.32,7.06,7.27,7.06
			c1.63,0,2.93-0.39,4.02-1.05v1.75c0,2-1.3,3.03-2.95,3.03c-1.82,0-2.85-0.85-3.08-2.21h-4.83c0.23,3.8,3.47,6.34,7.91,6.34
			c4.58,0,7.84-2.66,7.84-7.24V14.4H100.8z M100.8,23.25c-0.93,1.07-1.96,1.4-3.03,1.4c-1.98,0-3.47-1.57-3.47-3.18
			c0-2.11,1.49-3.43,3.47-3.43c1.07,0,2.09,0.29,3.03,1.36V23.25z"/>
		<path class="st0" d="M141.29,14.4v0.76c-1.09-0.72-2.39-1.14-4.02-1.14c-3.96,0-7.27,3.32-7.27,7.7c0,4.34,3.32,7.72,7.27,7.72
			c1.63,0,2.93-0.45,4.02-1.18v0.8h4.89V14.4H141.29z M141.29,23.96c-0.93,1.03-1.96,1.3-3.01,1.3c-2,0-3.47-1.53-3.47-3.55
			c0-2.04,1.47-3.57,3.47-3.57c1.05,0,2.08,0.27,3.01,1.3V23.96z"/>
		<path class="st0" d="M159.41,14.4l-3.49,8.46l-3.51-8.46h-5.16l6.34,14.64h4.66l6.32-14.64H159.41z"/>
		<path class="st0" d="M177.04,14.4l-3.49,8.46l-3.51-8.46h-5.16l6.34,14.64h4.66l6.34-14.64H177.04z"/>
		<path class="st0" d="M195.72,14.4l-3.84,9.08l-4.17-9.08h-5.2l7.16,14.33l-3.05,7.27h5.14l9.12-21.61H195.72z"/>
		<path class="st0" d="M128.36,15.38h-4.92c-0.26-1.49-1.16-2.51-3.24-2.51c-1.74,0-2.86,0.67-2.86,1.95c0,1.14,0.81,1.63,2.37,1.95
			l2.75,0.58c3.62,0.76,5.93,2.24,5.93,5.66c0,3.96-3.24,6.41-8.16,6.41c-4.43,0-8.42-2.13-8.88-7.03h4.92
			c0.32,1.75,1.79,2.86,4.11,2.86c1.74,0,2.78-0.67,2.78-1.78c0-0.7-0.38-1.43-2.08-1.75l-3.24-0.7c-3.88-0.85-5.7-2.63-5.7-5.77
			c0-3.96,3.18-6.41,7.81-6.41C123.13,8.85,127.87,10.05,128.36,15.38z"/>
	</g>
	<g>
		<g>
			<g>
				<path class="st0" d="M0.88,18.56c0,2.74,2.54,4.97,5.66,4.97s3.45-2.26,3.45-5s-0.32-4.94-3.45-4.94S0.88,15.82,0.88,18.56z"/>
			</g>
			<g>
				<path class="st0" d="M36.44,18.56c0,2.74-2.54,4.97-5.66,4.97s-3.45-2.26-3.45-5s0.32-4.94,3.45-4.94S36.44,15.82,36.44,18.56z"
					/>
			</g>
		</g>
		<g>
			<path class="st0" d="M33.14,36.38l-12.33-2.83c-0.93-0.3-1.44-1.3-1.14-2.23c0.3-0.93,1.29-1.44,2.23-1.14l5.56,1.58l-1.87-4.27
				l0.79-0.75c1.15-1.14,3.8-4.26,3.73-8.49C30,11.29,24.03,6.63,18.53,6.63c-5.5,0-11.47,4.67-11.58,11.61
				c-0.07,4.23,2.59,7.35,3.73,8.49c0.69,0.69,0.69,1.81,0,2.5c-0.69,0.69-1.81,0.69-2.5,0c-1.46-1.46-4.86-5.47-4.77-11.05
				c0.12-7.29,6.22-15.1,15.12-15.1c8.9,0,15.01,7.81,15.12,15.1c0.08,4.71-2.33,8.3-3.97,10.19L33.14,36.38z"/>
		</g>
		<g>
			
				<ellipse transform="matrix(0.4342 -0.9008 0.9008 0.4342 -19.8186 26.5826)" class="st0" cx="11.25" cy="29.07" rx="2.3" ry="3.32"/>
		</g>
	</g>
</g>
</svg>
